<svg width="48" height="41" viewBox="0 0 48 41" fill="none" xmlns="http://www.w3.org/2000/svg">
<path d="M23.7162 0C31.0374 0 38.3401 0 45.6613 0C47.1735 0 47.3579 0.184413 47.3579 1.6966C47.3579 2.48958 47.3579 3.301 47.3579 4.09397C47.3579 4.88695 46.9707 5.3111 46.1777 5.27422C44.7024 5.20045 44.9606 5.58772 44.9606 6.58355C44.9606 16.2099 44.9606 25.8179 44.9606 35.4442C44.9606 37.1039 44.7208 37.3437 43.0242 37.3437C30.1522 37.3437 17.2617 37.3437 4.38966 37.3437C2.65618 37.3437 2.43488 37.1224 2.43488 35.3705C2.43488 25.781 2.43488 16.1915 2.43488 6.60199C2.43488 5.34798 2.43488 5.32954 1.2362 5.27422C0.369454 5.25578 -0.0178135 4.85007 0.000627818 4.02021C0.0190691 3.15347 0.000627818 2.30517 0.000627818 1.43842C0.0190691 0.258179 0.258806 0 1.49437 0C8.68649 0 15.8786 0 23.0707 0C23.2736 0 23.4949 0 23.7162 0ZM23.7531 5.29266C17.7043 5.29266 11.6371 5.29266 5.58835 5.29266C4.37122 5.29266 4.37122 5.29266 4.37122 6.50979C4.37122 15.7304 4.37122 24.9511 4.37122 34.1718C4.37122 35.3889 4.37122 35.4073 5.56991 35.4073C17.649 35.4073 29.728 35.3889 41.8071 35.4258C42.7476 35.4258 43.0058 35.1676 42.9874 34.2271C42.9505 24.9696 42.9505 15.7304 42.9874 6.4729C42.9874 5.55084 42.7661 5.25578 41.8071 5.27422C35.7952 5.3111 29.7649 5.29266 23.7531 5.29266ZM23.6793 3.33788C30.4288 3.33788 37.1968 3.33788 43.9463 3.33788C44.2229 3.33788 44.4995 3.31944 44.7762 3.33788C45.2741 3.33788 45.4032 3.06126 45.3847 2.61867C45.3847 1.75193 44.7393 1.95478 44.2598 1.95478C30.521 1.95478 16.8007 1.95478 3.06189 1.95478C2.91436 1.95478 2.74838 1.95478 2.60085 1.95478C2.13982 1.93634 1.93697 2.15763 1.93697 2.61867C1.93697 3.06126 2.0845 3.33788 2.56397 3.31944C2.84059 3.31944 3.11721 3.31944 3.39383 3.31944C10.1618 3.33788 16.9298 3.33788 23.6793 3.33788Z" fill="white"/>
<path d="M29.5067 40.6999C27.2753 40.6999 25.0255 40.6999 22.7941 40.6999C22.1302 40.6999 21.4848 40.6077 21.4479 39.7963C21.411 38.948 22.0565 38.7451 22.7757 38.7451C27.2938 38.7451 31.7935 38.7451 36.3116 38.7451C36.9755 38.7451 37.6025 38.9111 37.6025 39.7225C37.6209 40.5155 37.0124 40.6999 36.33 40.6999C34.0618 40.6999 31.775 40.6999 29.5067 40.6999Z" fill="white"/>
<path d="M12.8173 40.6818C12.3194 40.6818 11.84 40.7002 11.342 40.6818C10.7888 40.6633 10.4015 40.3683 10.3647 39.7781C10.3462 39.2433 10.6782 38.8745 11.1761 38.8192C12.301 38.6901 13.4444 38.6716 14.5693 38.8192C15.0672 38.8745 15.3991 39.2618 15.3623 39.7966C15.3254 40.3129 14.9934 40.6449 14.4586 40.6818C13.9238 40.7002 13.3706 40.6818 12.8173 40.6818Z" fill="white"/>
<path d="M18.3129 40.6999C17.0957 40.6999 16.6347 40.4233 16.6347 39.7409C16.6347 39.0586 17.1695 38.7451 18.3129 38.7451C18.442 38.7451 18.5526 38.7451 18.6817 38.7451C19.364 38.7636 19.9726 38.9664 19.9726 39.7409C19.991 40.5524 19.3456 40.6999 18.6817 40.6815C18.571 40.6999 18.442 40.6999 18.3129 40.6999Z" fill="white"/>
<path d="M31.9963 32.6964C29.6358 32.6964 27.2569 32.7148 24.8964 32.6964C24.1772 32.6964 23.3289 32.7517 23.1814 31.7374C23.0892 31.0551 23.6608 30.6678 24.878 30.6863C25.5972 30.6863 25.8738 30.4281 25.8185 29.7089C25.7816 29.1372 25.8 28.5471 25.8185 27.9569C25.8369 27.3853 26.1135 26.998 26.7037 26.9611C27.2938 26.9242 27.6442 27.2931 27.6995 27.8463C27.7733 28.5471 27.7364 29.2478 27.7733 29.967C27.7733 30.2068 27.7364 30.5387 28.0683 30.5572C28.4925 30.5756 28.4187 30.2068 28.4187 29.9486C28.4371 28.4364 28.4187 26.9427 28.4187 25.4305C28.4187 25.0617 28.4187 24.6928 28.4187 24.324C28.4371 23.6601 28.7138 23.1253 29.433 23.1622C30.0969 23.1806 30.355 23.697 30.355 24.324C30.355 25.2461 30.355 26.1681 30.355 27.0902C30.355 28.0123 30.3366 28.9343 30.355 29.8564C30.355 30.133 30.226 30.5756 30.7054 30.5572C31.0743 30.5387 31.0005 30.1515 31.0189 29.8933C31.0374 29.34 31.0189 28.7868 31.0189 28.2336C31.0189 27.9201 31.0005 27.625 31.0374 27.3115C31.0927 26.6661 31.2402 26.039 32.0701 26.039C32.8262 26.0575 32.9921 26.6476 33.0475 27.2562C33.0844 27.625 33.0659 27.9938 33.0659 28.3627C33.0659 28.7868 33.0475 29.2294 33.0844 29.6535C33.1028 29.9855 32.9184 30.5387 33.4532 30.5387C33.9142 30.5387 33.7298 30.0039 33.7482 29.7089C33.7667 28.6393 33.7482 27.5512 33.7667 26.4816C33.7667 26.0575 33.7667 25.6149 33.7851 25.1907C33.8036 24.6006 34.0617 24.1396 34.6888 24.1211C35.3526 24.1027 35.703 24.5637 35.703 25.1907C35.7215 26.6107 35.7215 28.0123 35.7215 29.4323C35.7215 29.672 35.7215 29.9302 35.7399 30.1699C35.7583 30.3543 35.7952 30.5572 36.0165 30.5756C36.3116 30.5941 36.3485 30.3543 36.3669 30.133C36.3854 29.7642 36.3669 29.3954 36.4038 29.0265C36.4591 28.418 36.7173 27.9201 37.3996 27.9201C38.1004 27.9201 38.3217 28.418 38.3217 29.045C38.3217 29.2847 38.3401 29.5429 38.3217 29.7826C38.2664 30.3912 38.4877 30.6678 39.1516 30.6863C40.3871 30.7231 40.9588 31.092 40.8482 31.7559C40.6822 32.7701 39.8339 32.6964 39.1147 32.6964C36.7357 32.7148 34.3568 32.6964 31.9963 32.6964Z" fill="white"/>
<path d="M15.3438 23.734C11.84 23.734 9.00001 21.0969 8.74183 17.5746C8.66806 16.6894 9.00001 16.2468 9.92207 16.173C11.0839 16.0993 12.2457 16.0808 13.4259 16.1177C14.2005 16.1361 14.4586 15.8411 14.4218 15.085C14.3664 14.1076 14.4033 13.1302 14.4033 12.1344C14.4033 10.7328 14.8828 10.3456 16.2843 10.53C19.6591 11.0094 22.2593 14.126 22.038 17.4455C21.7983 21.0784 18.9399 23.7524 15.3438 23.734ZM14.4955 21.7976C17.5752 21.7976 19.4747 20.2854 19.9357 18.2016C20.4152 15.9886 19.3087 13.7756 17.2986 12.872C16.6163 12.5585 16.3397 12.7061 16.3581 13.4806C16.3765 14.5317 16.3765 15.5645 16.3581 16.6156C16.3397 17.7959 16.0077 18.1462 14.809 18.1647C13.7948 18.1831 12.7805 18.1647 11.7662 18.1647C10.8257 18.1831 10.7335 18.3307 11.1761 19.179C12.0613 20.8756 13.4628 21.7792 14.4955 21.7976Z" fill="white"/>
<path d="M39.0225 15.0849C39.8339 15.0481 40.2027 15.3616 40.1474 16.007C39.9998 17.3901 39.6863 18.7363 39.2991 20.0457C39.0962 20.728 38.3954 20.8386 37.8422 20.2301C37.2521 19.6031 36.8833 19.7137 36.3669 20.2854C35.4448 21.2812 34.4859 22.2217 33.5085 23.1622C32.7524 23.8999 32.3098 23.8815 31.5537 23.1438C31.0189 22.6274 30.4657 22.148 30.0046 21.5763C29.433 20.894 29.0273 20.8018 28.3634 21.5394C27.0909 22.9409 25.6894 24.2503 24.3432 25.5965C24.1772 25.7625 23.9928 25.9469 23.8084 26.0944C23.3658 26.4448 22.8863 26.4817 22.4806 26.076C22.0564 25.6518 22.0933 25.1723 22.4806 24.7666C23.126 24.0659 23.8084 23.402 24.4907 22.7381C25.7447 21.4841 27.0172 20.2301 28.2712 18.9576C28.8982 18.3306 29.4883 18.3306 30.1153 18.9392C30.7239 19.5477 31.3509 20.1379 31.941 20.7649C32.3467 21.2075 32.6971 21.2997 33.1581 20.8018C33.822 20.0825 34.5228 19.4002 35.242 18.7179C35.6477 18.3491 35.6477 18.0724 35.2604 17.6483C34.3199 16.634 34.4859 16.0992 35.8137 15.7857C36.8833 15.5275 38.0266 15.2878 39.0225 15.0849Z" fill="white"/>
<path d="M9.70074 15.4353C8.87088 15.4353 8.04102 15.4537 7.21116 15.4353C6.28909 15.4169 5.92026 15.0112 5.93871 14.126C5.95715 10.9725 9.03685 7.94813 12.1534 7.92969C13.0386 7.92969 13.5181 8.31696 13.5181 9.16526C13.555 10.8619 13.555 12.54 13.5181 14.2366C13.4996 15.0296 13.0386 15.4537 12.1903 15.4353C11.3605 15.4169 10.5306 15.4353 9.70074 15.4353Z" fill="white"/>
<path d="M32.6233 9.90283C30.4104 9.90283 28.1974 9.90283 26.0029 9.90283C25.4865 9.90283 25.0071 9.81063 24.8042 9.23895C24.6014 8.66727 24.9886 8.09559 25.6709 8.00338C26.1873 7.92961 26.7037 7.9665 27.2385 7.9665C31.0374 7.9665 34.8547 7.9665 38.6536 7.9665C38.9303 7.9665 39.2069 7.94805 39.4835 7.98494C40.1289 8.04026 40.6637 8.31688 40.6269 9.03609C40.59 9.69998 40.0736 9.92128 39.4466 9.92128C37.1599 9.90283 34.8916 9.90283 32.6233 9.90283Z" fill="white"/>
<path d="M32.6602 11.6182C34.781 11.6182 36.9017 11.6182 39.004 11.6182C39.2806 11.6182 39.5573 11.6182 39.8339 11.6735C40.2949 11.7657 40.6084 12.0792 40.6269 12.5587C40.6453 13.0381 40.3502 13.3701 39.8892 13.4992C39.6679 13.5729 39.4097 13.5729 39.17 13.5729C34.8363 13.5729 30.521 13.5729 26.1873 13.5729C26.0582 13.5729 25.9476 13.5729 25.8185 13.5545C25.1915 13.4807 24.7304 13.1857 24.7673 12.5218C24.8042 11.8948 25.2652 11.655 25.8554 11.6366C26.0951 11.6366 26.3533 11.6366 26.593 11.6366C28.6031 11.6182 30.6317 11.6182 32.6602 11.6182Z" fill="white"/>
<path d="M13.389 26.9242C15.27 26.9242 17.1326 26.9242 19.0136 26.9242C19.6775 26.9242 20.3414 27.0164 20.3598 27.8278C20.3783 28.6577 19.696 28.8606 18.9952 28.8606C15.2147 28.879 11.4527 28.8606 7.67222 28.8606C7.11898 28.8606 6.62106 28.713 6.39977 28.1229C6.17847 27.4959 6.65794 26.9427 7.4878 26.9242C9.46103 26.9058 11.4158 26.9242 13.389 26.9242Z" fill="white"/>
<path d="M13.3153 32.4013C11.4342 32.4013 9.57166 32.4013 7.69065 32.4013C7.00832 32.4013 6.38132 32.2723 6.36287 31.4793C6.34443 30.6863 6.98988 30.465 7.63533 30.465C11.4342 30.4466 15.2516 30.4466 19.0505 30.465C19.7144 30.465 20.3414 30.6863 20.3414 31.4793C20.3414 32.2907 19.6775 32.4013 19.0136 32.4013C17.1142 32.4013 15.2147 32.4013 13.3153 32.4013Z" fill="white"/>
</svg>
