<svg width="42" height="42" viewBox="0 0 42 42" fill="none" xmlns="http://www.w3.org/2000/svg">
<path d="M18.4273 29.3939C13.2818 29.3939 8.13631 29.3778 2.99082 29.41C2.52451 29.41 1.78484 29.0241 1.7366 30.021C1.65621 31.3878 2.04212 32.1918 2.9265 32.3365C3.24809 32.3847 3.56969 32.3687 3.89128 32.3687C10.6769 32.3687 17.4464 32.3687 24.2321 32.3687C25.3255 32.3687 25.824 32.6742 25.824 33.3013C25.8079 33.9123 25.2933 34.2017 24.1999 34.2017C23.9909 34.2017 23.7658 34.2017 23.5567 34.2017C21.8684 34.2017 21.8844 34.2017 21.9809 35.9062C22.0131 36.4047 22.2221 36.5494 22.6884 36.5494C23.219 36.5494 23.7658 36.4851 24.2803 36.6459C25.84 37.1122 26.837 38.9935 26.3867 40.5854C26.2099 41.1964 25.7757 41.325 25.2129 41.325C23.1226 41.309 21.0322 41.325 18.9419 41.325C16.5781 41.325 14.2305 41.325 11.8668 41.325C10.902 41.325 10.6287 41.0517 10.5483 40.103C10.4035 37.9805 11.706 36.5655 13.8285 36.5333C14.1983 36.5333 14.7451 36.7584 14.9059 36.2921C15.0988 35.7132 15.0827 35.07 14.9059 34.4751C14.7933 34.0892 14.3591 34.2339 14.0536 34.2339C10.5643 34.2178 7.09113 34.2339 3.60185 34.2339C2.60491 34.2339 1.68837 34.0249 0.948701 33.2852C0.353753 32.6903 0 31.9988 0 31.1305C0 23.2193 0 15.3242 0 7.41301C0 5.66033 1.35069 4.39003 3.1677 4.39003C8.44183 4.37395 13.716 4.37395 19.0062 4.39003C19.6654 4.39003 20.0674 4.21316 20.4533 3.63429C22.3829 0.723868 25.824 -0.578585 29.2489 0.241478C32.4649 1.0133 34.8768 3.77901 35.3592 7.15574C35.5361 8.40995 35.4074 9.63201 34.9733 10.7897C34.7321 11.4329 34.8768 11.8028 35.3431 12.253C37.0636 13.9414 38.7681 15.6458 40.4565 17.3663C41.2926 18.2025 41.5016 19.2476 41.1318 20.3411C40.762 21.4506 39.9419 22.0777 38.7842 22.2706C38.3661 22.3349 37.9641 22.3028 37.5943 22.142C37.0154 21.8847 36.9189 22.0938 36.9189 22.6405C36.935 25.2614 36.935 27.8985 36.9189 30.5195C36.9189 31.0019 36.9672 31.4843 36.7903 31.9506C36.3079 33.3013 35.327 34.0409 33.9281 34.1696C33.1241 34.25 32.3201 34.2017 31.5162 34.1857C30.9534 34.1696 30.471 33.9123 30.471 33.3013C30.471 32.642 30.9212 32.3847 31.5483 32.3687C32.2719 32.3526 32.9955 32.3526 33.7191 32.3526C34.314 32.3526 34.7642 32.0953 35.0054 31.5486C35.2788 30.9215 35.311 30.2301 35.1019 29.5869C34.9894 29.2331 34.5391 29.3778 34.2336 29.3778C30.0851 29.3778 25.9204 29.3778 21.7719 29.3778C20.6785 29.3939 19.5529 29.3939 18.4273 29.3939ZM18.4595 27.5448C23.7336 27.5448 29.0077 27.5287 34.2979 27.5608C35.0376 27.5608 35.2788 27.3357 35.2466 26.5961C35.1984 24.6987 35.2306 22.7852 35.2306 20.8878C35.2306 20.4858 35.1502 20.1642 34.8607 19.8748C33.5744 18.6205 32.288 17.3663 31.0498 16.0639C30.4871 15.4689 30.0207 15.9835 29.5062 16.08C29.056 16.1604 29.0399 16.5302 29.0399 16.9C29.0399 18.91 29.056 20.9199 29.0399 22.9299C29.0399 23.4766 29.2328 23.7017 29.7956 23.6856C30.5996 23.6535 31.4036 23.6696 32.2076 23.6856C32.7382 23.7017 33.0759 23.9912 33.0598 24.5379C33.0598 25.0846 32.7221 25.3579 32.1915 25.3901C32.0307 25.4062 31.8699 25.4062 31.7091 25.4062C22.8975 25.4062 14.0858 25.4062 5.27413 25.4062C4.06816 25.4062 3.8752 25.2132 3.8752 24.0072C3.8752 20.2767 3.8752 16.5623 3.8752 12.8319C3.8752 12.6389 3.8752 12.462 3.89128 12.2691C3.9556 11.7706 4.22895 11.4812 4.7435 11.4812C5.25805 11.4812 5.53141 11.7706 5.59573 12.2691C5.62788 12.5424 5.6118 12.7997 5.6118 13.0731C5.6118 16.3211 5.62788 19.5532 5.59573 22.8013C5.59573 23.5248 5.82084 23.7982 6.52835 23.6856C6.56051 23.6856 6.57658 23.6856 6.60874 23.6856C7.76648 23.6856 7.76648 23.6856 7.76648 22.5601C7.76648 21.6274 7.7504 20.6787 7.76648 19.7461C7.78256 18.8457 8.08807 18.5562 9.00462 18.5401C10.3392 18.5241 11.6899 18.5241 13.0245 18.5401C13.8607 18.5562 14.118 18.8135 14.134 19.6657C14.1501 20.8235 14.134 21.9651 14.134 23.1228C14.134 23.3801 14.1662 23.6213 14.4878 23.6535C14.6968 23.6696 14.938 23.7017 15.0827 23.5088C15.2435 23.2997 15.1953 23.0424 15.1953 22.8013C15.1953 20.9521 15.1792 19.1029 15.2114 17.2538C15.2274 16.2729 15.549 15.9674 16.5299 15.9513C17.7037 15.9352 18.8936 15.9513 20.0674 15.9513C21.386 15.9513 21.6432 16.2086 21.6432 17.5593C21.6432 19.3602 21.6432 21.145 21.6432 22.946C21.6432 23.3158 21.6593 23.6535 22.1739 23.6535C22.7045 23.6535 22.6884 23.2997 22.6884 22.946C22.6884 20.5019 22.6884 18.0738 22.6884 15.6297C22.6884 15.3242 22.6723 15.0509 22.4151 14.8257C21.8684 14.3594 21.386 13.6037 20.7749 13.4911C20.2121 13.3946 19.8262 14.3112 19.3117 14.7293C19.2634 14.7614 19.2313 14.8097 19.1991 14.8418C18.7007 15.3081 18.2022 15.3242 17.7198 14.8257C17.1409 14.2308 16.5299 13.668 15.9671 13.057C15.6134 12.6711 15.34 12.6871 14.9863 13.057C14.3913 13.6841 13.7803 14.279 13.1693 14.874C12.7351 15.292 12.2205 15.4368 11.7542 14.9222C11.304 14.4398 11.513 13.9735 11.915 13.5715C12.8316 12.6389 13.7642 11.7063 14.6968 10.7897C15.2114 10.2752 15.7259 10.2913 16.2405 10.8058C16.8515 11.4168 17.4464 12.0118 18.0575 12.6228C18.1861 12.7515 18.2987 12.9283 18.5077 12.9283C18.9901 12.9123 19.778 11.642 19.6011 11.1596C19.1026 9.77672 18.8293 8.36171 19.167 6.89846C19.3117 6.25528 19.1348 6.0784 18.4755 6.0784C13.5712 6.11056 8.66694 6.09448 3.76264 6.09448C2.26723 6.09448 1.75268 6.62511 1.75268 8.1366C1.75268 14.279 1.76876 20.4054 1.7366 26.5478C1.7366 27.384 2.00996 27.5769 2.79786 27.5769C8.00768 27.5287 13.2336 27.5448 18.4595 27.5448ZM27.239 14.5524C30.8086 14.5524 33.6226 11.7706 33.6387 8.21699C33.6548 4.71163 30.8086 1.83337 27.2872 1.76905C23.7818 1.70473 20.8553 4.64731 20.8553 8.20092C20.8553 11.7545 23.6693 14.5524 27.239 14.5524ZM27.2229 20.0356C27.2229 19.2798 27.2229 18.5401 27.2229 17.7844C27.2229 16.5302 27.2229 16.5302 26.0169 16.3051C25.7757 16.2568 25.5345 16.2407 25.3094 16.1604C24.6662 15.9352 24.4893 16.2247 24.4893 16.8035C24.5054 18.4597 24.4733 20.132 24.4893 21.7882C24.5054 23.959 24.1838 23.6213 26.4511 23.6696C26.9978 23.6856 27.2229 23.4927 27.2068 22.9299C27.2068 21.9651 27.2229 21.0003 27.2229 20.0356ZM39.5238 19.4084C39.5078 18.9743 39.2666 18.6688 38.9771 18.3793C37.6264 17.0447 36.2918 15.694 34.9572 14.3594C33.8477 13.2499 33.8638 13.266 32.7382 14.2629C32.3362 14.6167 32.3201 14.8257 32.7061 15.2117C34.314 16.7875 35.8898 18.3793 37.4817 19.9552C37.6264 20.0999 37.8033 20.2446 37.9802 20.3411C38.6716 20.6948 39.5078 20.1803 39.5238 19.4084ZM19.8102 20.7591C19.8102 20.4054 19.8102 20.0677 19.8102 19.714C19.7458 17.511 20.2925 17.8166 17.6716 17.7844C17.1892 17.7844 17.0123 17.9934 17.0123 18.4597C17.0284 19.5371 16.9962 20.5983 17.0123 21.6757C17.0605 24.0233 16.546 23.6213 19.1509 23.6696C19.6333 23.6856 19.8262 23.4766 19.8102 23.0103C19.7941 22.2545 19.8102 21.4988 19.8102 20.7591ZM18.4916 39.5724C20.3086 39.5724 22.1256 39.5724 23.9587 39.5724C24.1677 39.5724 24.425 39.6527 24.5376 39.4116C24.6662 39.1543 24.4733 38.9452 24.3285 38.7684C24.023 38.3825 23.5889 38.2538 23.1065 38.2538C20.0192 38.2538 16.948 38.2538 13.8607 38.2538C13.3944 38.2538 12.9602 38.3825 12.6386 38.7684C12.4939 38.9452 12.317 39.1704 12.4296 39.4116C12.5421 39.6527 12.7994 39.5724 13.0085 39.5724C14.8415 39.5724 16.6746 39.5724 18.4916 39.5724ZM12.3974 22.0294C12.3974 21.7561 12.3813 21.4988 12.3974 21.2254C12.4617 20.5823 12.2205 20.3089 11.5452 20.325C9.26189 20.3732 9.63172 20.1159 9.59956 22.2063C9.59956 22.3189 9.59956 22.4153 9.59956 22.5279C9.59956 23.6696 9.59956 23.6696 10.7412 23.6696C12.6547 23.6374 12.3653 23.9108 12.3974 22.0294ZM18.4755 36.5333C20.2604 36.5333 20.3086 36.469 20.1478 34.7806C20.0996 34.3786 19.9388 34.2017 19.5368 34.2017C18.8454 34.2017 18.1379 34.2178 17.4464 34.2017C16.9962 34.2017 16.8515 34.4108 16.8193 34.8449C16.7068 36.5333 16.6907 36.5333 18.3951 36.5333C18.4273 36.5333 18.4595 36.5333 18.4755 36.5333Z" fill="white"/>
<path d="M18.4755 31.629C17.961 31.5486 17.6072 31.2591 17.6233 30.7446C17.6394 30.23 17.961 29.8763 18.4916 29.8924C19.0222 29.8924 19.3438 30.2461 19.3438 30.7607C19.3438 31.2913 18.9901 31.5647 18.4755 31.629Z" fill="white"/>
<path d="M28.1233 32.3848C28.6701 32.4812 29.0238 32.7707 29.0077 33.2852C29.0077 33.8159 28.6379 34.1375 28.1233 34.1375C27.6088 34.1375 27.2711 33.7837 27.2711 33.2691C27.3033 32.7385 27.657 32.4491 28.1233 32.3848Z" fill="white"/>
<path d="M8.08807 11.626C9.08501 11.6099 9.61564 11.9958 9.55132 12.5425C9.47093 13.25 8.95638 13.443 8.34535 13.443C7.5896 13.4591 7.07505 13.0892 7.10721 12.4943C7.15545 11.7546 7.70216 11.6421 8.08807 11.626Z" fill="white"/>
<path d="M8.28103 16.8517C7.67 16.8356 7.13937 16.6909 7.12329 15.9512C7.10721 15.3724 7.62176 15.0186 8.37751 15.0347C9.00462 15.0508 9.50309 15.2598 9.55132 15.9673C9.58348 16.5301 9.06893 16.8678 8.28103 16.8517Z" fill="white"/>
<path d="M8.32927 9.95365C7.67 9.96973 7.12329 9.84109 7.12329 9.08534C7.13937 8.28136 7.7504 8.23312 8.37751 8.21704C9.00462 8.21704 9.55132 8.36176 9.55132 9.08534C9.53524 9.87325 8.92422 9.98581 8.32927 9.95365Z" fill="white"/>
<path d="M29.8599 10.0019C29.8599 10.5325 29.5705 11.1436 29.0077 11.6099C28.6057 11.9476 28.1555 12.2209 27.8018 12.639C27.4641 13.041 26.9334 13.0088 26.6119 12.5747C26.3224 12.1887 25.9526 11.9636 25.5988 11.6903C24.9878 11.224 24.6341 10.629 24.6341 9.84112C24.6341 9.35873 24.8913 9.00497 25.3737 8.92458C25.824 8.84418 26.1455 9.08537 26.3224 9.50344C26.3867 9.68032 26.4189 9.87328 26.5154 10.0341C26.7244 10.4039 27.0782 10.5325 27.4802 10.42C27.7857 10.3396 28.0108 10.1466 27.9947 9.79288C27.9786 9.31049 27.641 9.16577 27.239 9.13361C26.7727 9.08537 26.3385 8.9889 25.9365 8.76378C24.2964 7.8794 24.1677 5.70864 25.7114 4.66346C26.0491 4.43835 26.3385 4.22931 26.5636 3.85948C26.9174 3.29669 27.5766 3.32885 27.9465 3.89164C28.1716 4.22931 28.4289 4.43835 28.7505 4.6313C29.3776 5.0333 29.7313 5.61217 29.8439 6.33575C29.9243 6.86638 29.7313 7.31661 29.1846 7.46133C28.654 7.60604 28.3002 7.31661 28.1394 6.83422C27.9786 6.36791 27.7535 5.99808 27.1907 6.04632C26.853 6.07847 26.5315 6.17495 26.4993 6.57695C26.4671 6.96286 26.6923 7.17189 27.046 7.25229C27.3515 7.31661 27.6892 7.34877 27.9947 7.44525C29.1042 7.78292 29.8599 8.69946 29.8599 10.0019Z" fill="white"/>
</svg>
