<svg width="46" height="42" viewBox="0 0 46 42" fill="none" xmlns="http://www.w3.org/2000/svg">
<path d="M37.8315 14.8857C37.0759 14.344 35.9871 14.3592 35.2114 14.9365L35.2104 14.9375C34.3386 15.5792 34.0698 16.6146 34.4868 17.7324V17.7334C34.6946 18.2963 34.7346 18.741 34.521 19.0479C34.3076 19.3541 33.8727 19.4786 33.2583 19.4873C32.0531 19.5045 30.8442 19.5215 29.6352 19.4697C29.2688 19.4527 29.0417 19.5023 28.9096 19.6221C28.781 19.7388 28.7145 19.9484 28.7397 20.3271V20.3291C28.7916 21.2972 28.7573 22.2857 28.7573 23.2627C28.7573 23.6535 28.7291 23.9722 28.6616 24.2188C28.5939 24.4656 28.4831 24.652 28.31 24.7617C28.1372 24.8712 27.9209 24.8923 27.6674 24.8506C27.4142 24.8089 27.1122 24.7026 26.7563 24.542H26.7553C25.0804 23.7794 23.2611 24.9224 23.228 26.7441C23.2115 27.7167 23.6721 28.4749 24.3618 28.8867C25.0525 29.299 25.9821 29.369 26.9106 28.9424C27.4894 28.6746 27.9524 28.6 28.2758 28.8047C28.5991 29.0093 28.7311 29.4604 28.7397 30.0996C28.7569 31.0787 28.7924 32.0489 28.7231 33.0361C28.6976 33.4536 28.7521 33.7088 28.8921 33.8594C29.0307 34.0084 29.2796 34.0832 29.7202 34.0664L30.3081 34.04C31.6793 33.9921 33.0398 34.0302 34.3921 34.0303C36.0005 34.013 37.6109 34.0491 39.2143 34.0146C41.3671 33.9641 43.2511 32.1106 43.2846 29.9785C43.3363 26.7065 43.3026 23.4373 43.3198 20.1797L43.3081 19.9834C43.2855 19.8093 43.2306 19.6967 43.1518 19.624C43.0454 19.526 42.871 19.4789 42.5952 19.4873H42.5942C41.6973 19.5045 40.8173 19.5046 39.9204 19.4873V19.4863C39.5978 19.4819 39.33 19.4516 39.1167 19.3857C38.9021 19.3195 38.7363 19.2155 38.6284 19.0605C38.5207 18.9059 38.4789 18.7128 38.4878 18.4863C38.4967 18.2607 38.5565 17.995 38.6567 17.6855V17.6846C38.8495 17.1061 38.8685 16.5716 38.729 16.1016C38.5895 15.632 38.2896 15.2189 37.8315 14.8857ZM40.8325 16.5967C40.8325 16.9877 40.9017 17.194 41.0268 17.3057C41.1539 17.419 41.3671 17.4615 41.727 17.4443L41.729 17.4434C42.2054 17.4303 42.5363 17.4363 42.7817 17.4219C43.0296 17.4073 43.1461 17.3723 43.2114 17.3086C43.2759 17.2455 43.3126 17.1315 43.3266 16.8838C43.3404 16.6399 43.3321 16.3042 43.3364 15.8213L43.3325 14.1846C43.3325 13.637 43.3367 13.0885 43.354 12.5449C43.3627 12.2401 43.4059 11.9162 43.5581 11.6689C43.7164 11.4118 43.9847 11.2505 44.4038 11.2598C44.6105 11.2644 44.778 11.3098 44.9116 11.3906C45.0458 11.472 45.1394 11.5861 45.2036 11.7168C45.329 11.9726 45.3452 12.3004 45.3452 12.6006C45.3452 18.3705 45.3621 24.1414 45.3276 29.9121C45.31 33.0483 42.5639 35.9015 39.4253 35.9717C35.635 36.0578 31.8412 35.9887 28.0551 36.0059H28.0542C27.6439 36.0058 27.3206 35.9075 27.101 35.6904C26.8818 35.4734 26.784 35.1551 26.7837 34.7539L26.7573 33.418C26.753 32.9727 26.7577 32.5266 26.7837 32.0762V32.0752C26.8094 31.6896 26.7614 31.4675 26.6391 31.3418C26.5173 31.2168 26.2917 31.1571 25.8735 31.1826C23.8997 31.306 22.1716 30.1249 21.519 28.3623L21.4048 28.0166C20.9043 26.279 21.4711 24.4117 22.8755 23.2715C23.8062 22.5163 24.8659 22.144 26.0669 22.2676H26.0688C26.3532 22.302 26.5175 22.2821 26.6137 22.208C26.7053 22.1373 26.7661 21.991 26.7661 21.6777V21.6768C26.7704 21.0928 26.7759 20.6633 26.7456 20.3428C26.7151 20.0212 26.6499 19.8327 26.5337 19.7129C26.4177 19.5934 26.2325 19.5239 25.9126 19.4883C25.5935 19.4527 25.1628 19.4521 24.5747 19.4521C23.6764 19.4521 22.8012 19.434 21.9067 19.4512V19.4521L21.9057 19.4512C21.5044 19.4598 21.1772 19.3765 20.9292 19.1738C20.681 18.971 20.5259 18.6617 20.4458 18.252V18.251C20.2938 17.5008 19.9877 16.9324 19.5708 16.5586C19.1549 16.1859 18.6214 15.9996 17.9995 16.0244C17.3942 16.0493 16.875 16.2724 16.478 16.6611C16.0803 17.0506 15.7999 17.6117 15.6821 18.3184C15.6283 18.6753 15.5057 18.9578 15.2964 19.1504C15.0857 19.3441 14.8003 19.4344 14.4477 19.4346C13.948 19.4432 13.444 19.4482 12.9399 19.4482L11.4301 19.4355C11.0641 19.4266 10.7513 19.3369 10.5327 19.1328C10.312 18.9267 10.2033 18.6192 10.2124 18.2129V15.7178C10.2124 15.42 10.2802 15.157 10.4399 14.9629C10.6016 14.7665 10.8461 14.6551 11.1684 14.6367L11.1714 14.6357C11.482 14.6264 11.7132 14.7317 11.8764 14.9121C12.0362 15.0888 12.1237 15.3297 12.1684 15.5801H12.1674C12.1951 15.7198 12.1958 15.8584 12.1958 15.9854C12.1958 16.1158 12.1957 16.2349 12.2192 16.3525L12.2202 16.3564C12.2396 16.4731 12.2316 16.6006 12.2231 16.7168C12.2142 16.8379 12.2046 16.9477 12.2124 17.0469C12.2201 17.1445 12.2441 17.2186 12.2924 17.2725C12.3402 17.3256 12.4246 17.3729 12.5815 17.3926L12.5825 17.3936C12.8992 17.4375 13.1873 17.4799 13.4389 17.4111C13.6776 17.3458 13.8978 17.1744 14.061 16.75V16.749C14.7655 14.9703 16.2157 14.0156 18.1167 14.0332C20.001 14.0508 21.4145 15.0235 22.1528 16.7988V16.7998C22.2532 17.0422 22.3609 17.2033 22.4985 17.3037C22.6341 17.4026 22.8118 17.4514 23.0727 17.4434C24.0734 17.4089 25.0916 17.4089 26.0923 17.4434H26.0932C26.3932 17.4517 26.5596 17.3924 26.6528 17.291C26.724 17.2135 26.7664 17.0971 26.7798 16.9268L26.7837 16.7373C26.7492 15.7375 26.7318 14.7181 26.7837 13.7148L26.7846 13.4707C26.7736 13.2473 26.7256 13.084 26.6342 12.958C26.5127 12.7906 26.2996 12.6688 25.9292 12.5762V12.5771C24.2169 12.1535 23.2096 10.9656 22.8755 9.27832C22.5576 7.68923 23.1072 6.31034 24.3198 5.25586C24.8659 4.78024 25.4852 4.46098 26.2114 4.33691L26.3237 4.3125C26.4264 4.28438 26.5029 4.24568 26.561 4.20215C26.6375 4.14481 26.6875 4.07452 26.7192 3.99121C26.7857 3.81639 26.775 3.59453 26.7661 3.33691V3.33594C26.7621 3.20991 26.7363 3.12456 26.7016 3.06543C26.6677 3.00754 26.6211 2.96836 26.563 2.94141C26.4385 2.88387 26.2697 2.88184 26.0737 2.88184C22.8343 2.88184 19.5811 2.84681 16.3442 2.89844C14.0565 2.98301 12.271 4.85159 12.2036 7.12598C12.1692 8.70878 12.187 10.2737 12.187 11.8594C12.187 12.1514 12.1871 12.4329 12.1518 12.7324L12.1508 12.7363C12.1063 13.0126 12.0156 13.2749 11.8501 13.4668C11.681 13.6627 11.4407 13.7779 11.1196 13.7686C10.792 13.7592 10.554 13.6352 10.4018 13.4258C10.2532 13.2211 10.1958 12.9471 10.1958 12.6523C10.1958 10.6417 10.1264 8.63679 10.2299 6.61816L10.2514 6.3418C10.395 4.96643 11.1104 3.66666 12.1294 2.68848C13.2165 1.64501 14.6567 0.960047 16.1333 0.942383C20.0092 0.890704 23.8876 0.924442 27.7612 0.907227H27.7622C31.4303 0.907225 35.1175 0.890001 38.7866 0.907227C40.7052 0.91602 42.3332 1.59707 43.4839 2.76074C44.6344 3.92444 45.3022 5.5654 45.311 7.4834V7.48438C45.311 8.087 45.3107 8.69137 45.2934 9.2959V9.29688C45.2843 9.55112 45.2204 9.78425 45.0835 9.96289C44.9446 10.1439 44.7378 10.2585 44.4643 10.2871L44.4653 10.2881C44.1655 10.3256 43.912 10.2506 43.726 10.0869C43.5415 9.9245 43.4335 9.68376 43.4057 9.40625V9.40527C43.3193 8.74511 43.3368 8.0815 43.3198 7.41797V7.41699C43.2943 6.06097 42.8371 4.93689 42.0591 4.15039C41.3298 3.4133 40.3118 2.96637 39.0854 2.90625L38.8364 2.89941C35.7695 2.86496 32.691 2.89908 29.6216 2.88184C29.2794 2.88188 29.0549 2.93084 28.9233 3.04492C28.7994 3.15228 28.733 3.34151 28.7739 3.69727L28.7895 3.87988C28.7912 3.94078 28.7898 4.00157 28.7876 4.06055C28.7831 4.18206 28.7749 4.29164 28.7749 4.40137C28.7749 4.80862 28.7715 5.12525 28.7407 5.36816C28.7099 5.61101 28.6499 5.79847 28.521 5.93262C28.3917 6.06707 28.2082 6.13247 27.9702 6.16895C27.7324 6.20536 27.4216 6.21408 27.0229 6.22266L27.0239 6.22363C25.8945 6.25457 24.9543 7.12726 24.8276 8.22754L24.813 8.4502C24.8046 9.10691 25.0248 9.6669 25.4057 10.0684C25.7391 10.4195 26.1997 10.6539 26.7495 10.7236L26.9907 10.7432C27.3859 10.7603 27.6972 10.7805 27.938 10.8262C28.1789 10.872 28.3638 10.9463 28.4966 11.084C28.6294 11.222 28.6971 11.4098 28.7329 11.6523C28.7685 11.8943 28.7749 12.2054 28.7749 12.6006C28.7749 13.9767 28.7921 15.3568 28.7749 16.7354V16.7373C28.7664 17.0248 28.8109 17.2107 28.9067 17.3184C28.9977 17.4203 29.1593 17.4772 29.4555 17.4443H29.4585C29.6699 17.4267 29.8752 17.4434 30.0698 17.4434C30.2369 17.4434 30.4076 17.4538 30.5766 17.4648C30.7467 17.4759 30.9148 17.4878 31.0805 17.4932C31.4126 17.5038 31.7238 17.4864 31.9975 17.3818L32.1108 17.3281C32.2107 17.2693 32.2735 17.1958 32.3149 17.1143C32.3719 17.0015 32.3919 16.8631 32.394 16.7031C32.3961 16.5396 32.3807 16.3749 32.3745 16.1943C32.3685 16.0205 32.3719 15.8392 32.4194 15.6729L32.4204 15.6719C33.0531 13.5979 34.9725 12.2195 37.0923 12.4668L37.2856 12.4941C39.2737 12.8228 40.8154 14.5258 40.8325 16.5957V16.5967Z" fill="white" stroke="white" stroke-width="0.2"/>
<path d="M2.06152 25.0583C2.69832 24.9465 3.22897 24.8117 3.63477 24.5125C4.03492 24.2172 4.3263 23.7523 4.46094 22.9529L4.49316 22.7898C4.85818 21.1289 6.31662 20.214 8.02637 19.9939C9.66561 19.7825 11.0441 20.402 12.0293 21.7214L12.1572 21.8757C12.2827 22.0113 12.4017 22.0914 12.5264 22.1316C12.6929 22.1853 12.8863 22.1734 13.1445 22.0984L15.1348 21.5427C15.7985 21.3617 16.4623 21.1848 17.126 21.0125H17.127C17.6763 20.8751 18.0713 20.8414 18.3682 21.0144C18.6277 21.1658 18.7891 21.4615 18.9287 21.9011L18.9873 22.0984V22.0994C19.3831 23.562 19.7966 25.0284 20.1758 26.5105L20.2236 26.7175C20.3142 27.1863 20.2656 27.5584 20.043 27.7966C19.8199 28.0351 19.4518 28.1082 18.9775 28.0466L18.7686 28.0115C17.732 27.8178 16.9021 28.0354 16.3564 28.5525C15.8101 29.0702 15.5306 29.9058 15.6318 30.9871C15.6586 31.2721 15.6333 31.5449 15.5146 31.7654C15.3933 31.9907 15.1809 32.1491 14.8633 32.2146H14.8613C14.5201 32.2791 14.2503 32.2161 14.0479 32.0437C13.8502 31.8752 13.7312 31.6141 13.6602 31.3123C13.1128 28.9636 14.6328 26.6043 17.1465 26.0417H17.1475C17.5422 25.9559 17.7136 25.8512 17.7812 25.7195C17.8152 25.6532 17.8286 25.5688 17.8193 25.4548C17.8146 25.3973 17.8047 25.3338 17.7891 25.2634L17.7266 25.031C17.5751 24.5204 17.4664 24.1454 17.3555 23.8738C17.2442 23.6013 17.1387 23.4531 17.0078 23.3767C16.8777 23.3009 16.7013 23.2836 16.416 23.3259C16.1308 23.3683 15.7577 23.4662 15.2471 23.6003C14.5585 23.7822 13.8674 23.9435 13.1885 24.1355L12.5137 24.3396C12.0952 24.4732 11.7428 24.4793 11.4463 24.3347C11.1514 24.1908 10.9316 23.908 10.7549 23.5105C10.4368 22.7989 9.94259 22.3248 9.37012 22.1052C8.86957 21.9133 8.30169 21.9128 7.72656 22.1277L7.47949 22.2332C6.99584 22.4666 6.66426 22.7764 6.45605 23.1541C6.2734 23.4853 6.18234 23.8747 6.17383 24.322L6.1748 24.5173C6.18339 24.8606 6.18633 25.1289 6.16406 25.3406C6.14163 25.5534 6.09262 25.7215 5.99121 25.8572C5.88985 25.9925 5.74435 26.0844 5.55176 26.1648C5.36001 26.2448 5.11008 26.318 4.79297 26.408H4.79199C4.3418 26.5292 4.01117 26.6183 3.77148 26.7117C3.53114 26.8053 3.40229 26.8962 3.33594 27.0085C3.27 27.1204 3.25387 27.2747 3.29102 27.5271C3.32819 27.7794 3.41497 28.1093 3.53613 28.5593L4.54395 32.3406C4.87979 33.6022 5.21592 34.8636 5.55176 36.1208C5.97759 37.6879 6.74444 38.7814 7.78125 39.3826C8.81797 39.9837 10.1411 40.1025 11.6992 39.6853C14.4871 38.9453 17.2807 38.1514 20.0889 37.4451C20.4721 37.3428 20.6809 37.2183 20.7715 37.0564C20.8603 36.8975 20.8534 36.6687 20.71 36.3054L20.6338 36.0818C20.5678 35.852 20.5289 35.6066 20.4834 35.3855C20.4209 35.0815 20.3468 34.8223 20.1943 34.6462C20.0952 34.5362 19.9951 34.4967 19.8926 34.4919C19.7842 34.487 19.6635 34.5204 19.5273 34.5769C19.4601 34.6049 19.3916 34.6377 19.3203 34.6716C19.2497 34.7053 19.1762 34.7409 19.1025 34.7732C18.9564 34.8372 18.7993 34.8922 18.6396 34.9021L18.6406 34.9031C17.5742 34.9905 16.6033 34.8338 15.7021 34.2683L15.7012 34.2673C15.4692 34.1156 15.2699 33.925 15.1729 33.6921C15.0733 33.4533 15.0872 33.1839 15.2559 32.8933V32.8923C15.414 32.6226 15.6257 32.4648 15.875 32.4128C16.1209 32.3617 16.3894 32.4168 16.6592 32.5427H16.6602C17.2842 32.8378 17.8666 32.9483 18.417 32.866C18.967 32.7836 19.4961 32.5073 20.0098 32.0105L20.1309 31.9031C20.4162 31.674 20.7247 31.5882 21.0059 31.658C21.3276 31.7379 21.5806 32.0132 21.708 32.4314V32.4324C22.2255 34.1401 22.6565 35.8648 23.0869 37.5867L23.1123 37.7058C23.1585 37.9799 23.1122 38.2221 22.9834 38.4197C22.8373 38.6436 22.5936 38.7967 22.293 38.8787V38.8796C18.5552 39.8787 14.8169 40.8772 11.0615 41.8591L11.0566 41.8601C10.7161 41.9318 10.2996 41.8973 10.1924 41.8972H10.1914C7.20981 41.8798 4.75374 40.2557 3.96387 37.6228C2.87814 34.0037 1.94711 30.3145 0.96582 26.6648L0.966797 26.6638C0.859067 26.2766 0.881507 25.9407 1.04395 25.6716C1.20524 25.4047 1.49261 25.2216 1.875 25.114C1.92681 25.0967 1.98174 25.0785 2.05469 25.0603L2.06152 25.0583Z" fill="white" stroke="white" stroke-width="0.2"/>
<path d="M15.3288 10.3481C16.2565 10.2457 17.1846 10.2645 18.113 10.4165C18.3564 10.4539 18.5602 10.5589 18.7029 10.7212C18.8457 10.8837 18.9216 11.0973 18.9216 11.3423C18.9216 11.5883 18.8459 11.7938 18.7058 11.9536C18.5669 12.1119 18.3707 12.2178 18.1423 12.2817L18.1433 12.2827C17.863 12.364 17.5808 12.3811 17.2771 12.3833C16.9695 12.3855 16.6451 12.373 16.2595 12.3901H16.2487C15.9765 12.3731 15.4711 12.3551 14.9499 12.2856H14.9489C14.6902 12.2486 14.4724 12.1453 14.322 11.9751C14.1709 11.8042 14.0959 11.5749 14.1052 11.3042L14.1257 11.1274C14.1591 10.9586 14.2318 10.812 14.3405 10.6938C14.4856 10.5365 14.6893 10.4371 14.9314 10.3999L15.3288 10.3481Z" fill="white" stroke="white" stroke-width="0.2"/>
<path d="M17.2657 7.51074L18.0176 7.53906L18.0196 7.54004C18.2916 7.55891 18.5286 7.66723 18.6905 7.85352C18.8528 8.04042 18.9323 8.29685 18.9044 8.5957C18.885 8.8692 18.7745 9.08361 18.5977 9.2334C18.4225 9.38185 18.1897 9.46016 17.9337 9.47852C17.4643 9.51328 16.9515 9.47951 16.4796 9.47949C16.0251 9.47949 15.5632 9.51328 15.0938 9.47852V9.47754C14.819 9.45908 14.5793 9.37261 14.4053 9.20605C14.2302 9.03834 14.1324 8.80053 14.1231 8.50391V8.50098C14.1231 8.23043 14.207 7.99332 14.3643 7.82129C14.5217 7.64926 14.7456 7.54987 15.0098 7.54004C15.7618 7.50115 16.5138 7.49129 17.2657 7.51074Z" fill="white" stroke="white" stroke-width="0.2"/>
<path d="M15.435 4.70776C15.7929 4.70612 16.1597 4.71928 16.5336 4.73218C17.0101 4.73211 17.515 4.71492 17.9984 4.73218C18.2406 4.74149 18.4535 4.81594 18.6156 4.95581C18.7781 5.09615 18.8827 5.2959 18.9203 5.53979L18.9213 5.54175C18.9587 5.81303 18.9032 6.05222 18.7641 6.23608C18.6254 6.41927 18.4111 6.53718 18.1508 6.58374C17.0714 6.77525 15.9568 6.77522 14.8773 6.58374V6.58276C14.6313 6.54441 14.4351 6.42973 14.3061 6.25366C14.1774 6.07794 14.1214 5.85066 14.14 5.59937C14.1587 5.33033 14.2529 5.11097 14.4193 4.95679C14.5855 4.80302 14.8134 4.72382 15.0805 4.7146L15.435 4.70776Z" fill="white" stroke="white" stroke-width="0.2"/>
<path d="M36.6711 22.061C37.7292 21.9223 38.7895 21.9045 39.8508 22.061L39.9465 22.0786C40.1647 22.1281 40.3411 22.2364 40.4612 22.3979C40.5979 22.5819 40.6529 22.8234 40.6252 23.1001V23.1011C40.5973 23.3522 40.5027 23.561 40.3469 23.7095C40.1914 23.8576 39.9825 23.9369 39.7395 23.9468L39.7405 23.9478C39.2364 23.9825 38.712 23.9653 38.217 23.9653C37.7574 23.9653 37.3023 23.9826 36.8352 23.9653H36.8323C36.5772 23.9471 36.3517 23.8735 36.1819 23.7261C36.0106 23.5772 35.9061 23.362 35.8782 23.0835C35.8504 22.8053 35.9107 22.5659 36.053 22.3862C36.195 22.2071 36.4099 22.0982 36.6702 22.061H36.6711Z" fill="white" stroke="white" stroke-width="0.2"/>
<path d="M39.6151 24.8684C39.8852 24.8774 40.1337 24.94 40.3202 25.0872C40.5093 25.2365 40.6232 25.4623 40.6425 25.7678L40.6483 25.8782C40.6497 26.1286 40.5707 26.3391 40.4276 26.4973C40.2653 26.6768 40.0289 26.7791 39.7607 26.8069C38.756 26.9108 37.7492 26.9285 36.7411 26.8069V26.8059C36.4901 26.7778 36.2681 26.6802 36.1112 26.511C35.9532 26.3406 35.8685 26.1067 35.8778 25.8254C35.8872 25.5291 35.9856 25.2947 36.162 25.1331C36.3366 24.9732 36.5765 24.8957 36.8495 24.886V24.885C37.3193 24.8502 37.7744 24.8674 38.2343 24.8674C38.6937 24.8674 39.1483 24.8512 39.6151 24.8684Z" fill="white" stroke="white" stroke-width="0.2"/>
<path d="M36.7083 27.7107C37.7301 27.6068 38.7725 27.5892 39.8157 27.7283H39.8167C40.069 27.7657 40.2834 27.8748 40.429 28.0525C40.5747 28.2305 40.6438 28.4679 40.6252 28.7468C40.6065 29.018 40.5069 29.2368 40.3391 29.3923C40.1722 29.5469 39.9468 29.6307 39.6887 29.6492L39.6848 29.6501C39.4492 29.6589 39.2095 29.6544 38.969 29.6501C38.7277 29.6458 38.485 29.6417 38.2385 29.6501H38.2346C37.7748 29.6501 37.32 29.6675 36.8528 29.6501L36.8499 29.6492C36.5775 29.631 36.3374 29.5531 36.1604 29.3933C35.9821 29.2321 35.8791 28.9988 35.8606 28.6951V28.6921C35.8513 28.4126 35.931 28.1794 36.0842 28.0085C36.2371 27.8384 36.4556 27.7387 36.7073 27.7107H36.7083Z" fill="white" stroke="white" stroke-width="0.2"/>
</svg>
