<svg width="576" height="215" viewBox="0 0 576 215" fill="none" xmlns="http://www.w3.org/2000/svg">
<rect width="576" height="215" rx="20" fill="#F4F4FF"/>
<path opacity="0.6" d="M534.522 156.693C534.54 163.676 534.129 170.677 533.236 177.714C533.022 179.303 516.359 177.463 516.127 179.035L412.114 179.392H179.711V179.285L412.114 178.481L516.127 178.124C516.359 176.553 533.022 178.41 533.236 176.803C534.075 170.088 534.522 163.355 534.522 156.693Z" fill="#EBF3FA"/>
<path d="M488.782 81.2913V178.482H188.656V93.9179H211.659V70.8258H234.662V102.008H253.289V95.043H285.722V106.83H299.848V80.3805H337.639V35H367.535V59.1994H374.357V38.929H404.236V70.1471H431.329V51.0019H460.296V70.1471H465.69V81.2913H488.782Z" fill="#E8F0FD"/>
<path d="M145.078 89.8102H118.396C117.164 89.8102 116.164 88.8101 116.164 87.5778V61.8247C116.164 60.5924 117.164 59.5923 118.396 59.5923H145.078C146.311 59.5923 147.311 60.5924 147.311 61.8247V87.5778C147.311 88.8101 146.311 89.8102 145.078 89.8102Z" fill="#C0D8FB"/>
<path d="M143.937 88.5067H119.559C118.434 88.5067 117.523 87.5959 117.523 86.4707V62.95C117.523 61.8249 118.434 60.9141 119.559 60.9141H143.937C145.062 60.9141 145.973 61.8249 145.973 62.95V86.4707C145.955 87.5959 145.045 88.5067 143.937 88.5067Z" fill="#DFEBFD"/>
<path d="M131.737 64.3069C132.092 64.3069 132.38 64.019 132.38 63.6639C132.38 63.3088 132.092 63.021 131.737 63.021C131.382 63.021 131.094 63.3088 131.094 63.6639C131.094 64.019 131.382 64.3069 131.737 64.3069Z" fill="#B7D3F3"/>
<path d="M136.293 64.5745C136.472 64.2709 136.865 64.1459 137.168 64.3245C137.472 64.5031 137.597 64.896 137.418 65.1996C137.24 65.5032 136.847 65.6282 136.543 65.4496C136.24 65.2889 136.132 64.896 136.293 64.5745Z" fill="#B7D3F3"/>
<path d="M140.754 68.1107C141.057 67.9143 141.45 68.0036 141.647 68.3072C141.843 68.6108 141.754 69.0037 141.45 69.2002C141.147 69.3966 140.754 69.3073 140.557 69.0037C140.379 68.718 140.45 68.3072 140.754 68.1107Z" fill="#B7D3F3"/>
<path d="M143.567 74.488C143.702 74.1597 143.545 73.7839 143.217 73.6487C142.889 73.5136 142.513 73.6701 142.378 73.9985C142.242 74.3268 142.399 74.7026 142.727 74.8378C143.056 74.973 143.431 74.8164 143.567 74.488Z" fill="#B7D3F3"/>
<path d="M141.844 79.9693C142.094 80.2193 142.094 80.6301 141.844 80.8801C141.594 81.1301 141.184 81.1301 140.934 80.8801C140.684 80.6301 140.684 80.2193 140.934 79.9693C141.184 79.7192 141.594 79.7192 141.844 79.9693Z" fill="#B7D3F3"/>
<path d="M137.327 85.1308C137.682 85.1308 137.969 84.843 137.969 84.4879C137.969 84.1328 137.682 83.845 137.327 83.845C136.971 83.845 136.684 84.1328 136.684 84.4879C136.684 84.843 136.971 85.1308 137.327 85.1308Z" fill="#B7D3F3"/>
<path d="M131.737 86.7739C132.092 86.7739 132.38 86.4861 132.38 86.131C132.38 85.7759 132.092 85.488 131.737 85.488C131.382 85.488 131.094 85.7759 131.094 86.131C131.094 86.4861 131.382 86.7739 131.737 86.7739Z" fill="#B7D3F3"/>
<path d="M127.168 64.5748C126.99 64.2712 126.597 64.1461 126.293 64.3247C125.99 64.5033 125.865 64.8962 126.043 65.1998C126.222 65.5035 126.615 65.6285 126.918 65.4499C127.222 65.2891 127.329 64.8962 127.168 64.5748Z" fill="#B7D3F3"/>
<path d="M122.704 68.111C122.401 67.9145 122.008 68.0038 121.811 68.3074C121.615 68.6111 121.704 69.004 122.008 69.2004C122.311 69.3969 122.704 69.3076 122.901 69.004C123.079 68.7182 123.008 68.3074 122.704 68.111Z" fill="#B7D3F3"/>
<path d="M120.487 74.8974C120.842 74.8974 121.13 74.6096 121.13 74.2545C121.13 73.8994 120.842 73.6116 120.487 73.6116C120.132 73.6116 119.844 73.8994 119.844 74.2545C119.844 74.6096 120.132 74.8974 120.487 74.8974Z" fill="#B7D3F3"/>
<path d="M121.609 79.9693C121.359 80.2193 121.359 80.6301 121.609 80.8801C121.859 81.1301 122.27 81.1301 122.52 80.8801C122.77 80.6301 122.77 80.2193 122.52 79.9693C122.27 79.7192 121.859 79.7192 121.609 79.9693Z" fill="#B7D3F3"/>
<path d="M126.131 85.1308C126.486 85.1308 126.774 84.843 126.774 84.4879C126.774 84.1328 126.486 83.845 126.131 83.845C125.776 83.845 125.488 84.1328 125.488 84.4879C125.488 84.843 125.776 85.1308 126.131 85.1308Z" fill="#B7D3F3"/>
<path d="M132.202 74.8979C132.557 74.8979 132.844 74.6101 132.844 74.255C132.844 73.8999 132.557 73.6121 132.202 73.6121C131.846 73.6121 131.559 73.8999 131.559 74.255C131.559 74.6101 131.846 74.8979 132.202 74.8979Z" fill="#B7D3F3"/>
<path d="M132.311 66.1829H132.133V74.2374H132.311V66.1829Z" fill="#B7D3F3"/>
<path d="M136.215 70.6809L131.945 74.0334L132.276 74.4548L136.546 71.1023L136.215 70.6809Z" fill="#B7D3F3"/>
<path d="M188.653 50.6802V177.821H170.758V51.1267C176.562 51.6089 182.509 51.5196 188.653 50.6802Z" fill="#DEEDFF"/>
<path d="M89.6528 51.6802V178.821H71.7578V52.1267C77.5621 52.6089 83.5092 52.5196 89.6528 51.6802Z" fill="#DEEDFF"/>
<path d="M123 123.821V179.821H105V124.018C110.838 124.23 116.82 124.191 123 123.821Z" fill="#DEEDFF"/>
<path d="M505.248 63.8605V177.803H487.371V42.7329C493.979 49.2873 499.944 56.3596 505.248 63.8605Z" fill="#DEEDFF"/>
<path d="M169.877 63.9486V177.891H152V42.821C158.608 49.3754 164.573 56.4477 169.877 63.9486Z" fill="#DEEDFF"/>
<path d="M72 64.9377V178.821H53V43.821C60.023 50.372 66.3626 57.4406 72 64.9377Z" fill="#DEEDFF"/>
<path d="M203.321 132.941H200.445L203.964 177.392H210.929L203.321 132.941Z" fill="#B7D3F3"/>
<path d="M260.344 119.975L259.737 120.1C256.986 120.654 254.307 118.868 253.736 116.117L253.093 112.903C252.539 110.152 254.325 107.473 257.075 106.902L257.683 106.777C260.433 106.223 263.112 108.009 263.683 110.76L264.326 113.974C264.88 116.725 263.094 119.421 260.344 119.975Z" fill="#3661FC"/>
<path d="M200.445 132.941C200.445 132.941 216.108 125.583 237.575 130.476L203.321 132.941H200.445Z" fill="#B7D3F3"/>
<path d="M210.931 177.821L203.305 132.941C203.305 132.941 227.308 124.886 245.917 132.941L256.99 177.535L210.931 177.821Z" fill="#D2E3FC"/>
<path d="M376.861 163.927C376.432 168.802 373.682 170.302 372.485 170.177C371.271 170.052 364.199 167.356 364.056 168.338C363.895 169.32 368.163 172.57 371.146 172.713C371.146 172.713 365.52 178.928 361.788 177.125C358.055 175.339 357.734 172.499 355.394 171.427C353.054 170.356 351.072 170.374 352.036 171.445C353.001 172.535 357.216 173.588 358.555 175.946C358.877 176.5 359.18 177.017 359.412 177.464L351.536 177.446C349.036 176.214 346.929 174.499 346.786 172.642C346.768 172.499 346.768 172.374 346.75 172.231C346.5 169.391 346.5 169.391 346.5 169.391C346.5 169.391 342.464 164.677 344.553 160.765C344.911 160.123 345.429 159.48 346.161 158.908C346.161 158.908 349.929 156.622 353.001 156.819C353.001 156.819 350.626 160.819 349.947 163.176C349.715 164.016 349.679 164.641 350.054 164.837C350.447 165.052 350.983 164.444 351.519 163.48C352.858 161.069 354.322 156.354 354.322 156.354C354.322 156.354 356.591 156.14 359.162 156.104C360.323 156.086 361.538 156.104 362.645 156.211C363.859 156.318 364.949 156.515 365.645 156.854C365.645 156.854 365.485 156.979 365.235 157.194C364.842 157.515 364.234 158.033 363.556 158.64C361.52 160.444 358.877 162.98 359.859 163.212C360.663 163.391 363.163 161.908 365.395 160.426C367.467 159.051 369.306 157.676 369.306 157.676C369.306 157.676 377.29 159.051 376.861 163.927Z" fill="#82B378"/>
<path d="M372.946 164.052C372.946 164.052 351.265 163.212 346.478 169.409C346.478 169.409 345.425 172.588 342.156 175.464L341.656 176.857C341.656 176.857 345.407 172.892 346.764 172.66C346.746 172.66 344.639 164.98 372.946 164.052Z" fill="#82B378"/>
<path d="M343.068 175.446C342.89 175.642 342.604 175.928 342.211 176.303C342.068 176.428 341.943 176.571 341.8 176.714C341.604 176.928 341.408 177.178 341.229 177.446H340.211C341.247 176.16 342.158 175.482 342.158 175.482C342.247 175.428 344.104 174.303 343.068 175.446Z" fill="#82B378"/>
<path d="M322.819 161.355C322.819 161.355 331.57 156.461 327.481 149.818C327.481 149.818 324.212 145.728 320.712 144.692C320.712 144.692 322.569 154.604 320.712 154.836C318.855 155.068 319.426 143.638 319.426 143.638C319.426 143.638 310.211 139.209 306.603 139.549C306.603 139.549 312.318 149.228 310.443 148.996C308.585 148.764 302.156 138.959 302.156 138.959C302.156 138.959 292.709 137.209 291.19 142.799C289.672 148.389 292.119 151.193 293.53 151.55C294.923 151.907 303.906 151.782 303.674 152.943C303.442 154.104 297.37 155.979 293.994 154.925C293.994 154.925 297.727 164.141 302.62 163.676C307.514 163.212 309.032 160.176 312.068 159.944C315.104 159.712 317.319 160.533 315.801 161.337C314.283 162.158 309.157 161.605 306.71 163.694C304.263 165.784 302.281 167.052 306.835 167.998C311.389 168.927 319.551 168.356 321.176 164.855C322.819 161.355 322.819 161.355 322.819 161.355Z" fill="#A8D29F"/>
<path d="M295.531 144.549C295.531 144.549 320.016 152.479 322.82 161.337C322.82 161.337 322.695 165.302 325.16 169.856V171.606C325.16 171.606 322.588 165.659 321.195 164.837C321.177 164.855 326.66 157.158 295.531 144.549Z" fill="#82B378"/>
<path d="M327.409 177.41H326.016C325.98 175.392 325.73 173.106 325.051 171.374C324.962 171.159 324.873 170.945 324.766 170.749C324.48 170.177 324.284 169.766 324.159 169.463C323.444 167.713 325.159 169.856 325.159 169.856C325.159 169.856 327.195 172.981 327.409 177.41Z" fill="#82B378"/>
<path d="M336.728 154.586C336.728 154.586 325.191 148.121 330.584 139.37C330.584 139.37 334.889 133.994 339.496 132.601C339.496 132.601 337.032 145.674 339.496 145.978C341.961 146.281 341.193 131.226 341.193 131.226C341.193 131.226 353.337 125.386 358.106 125.85C358.106 125.85 350.569 138.602 353.034 138.298C355.498 137.995 363.946 125.082 363.946 125.082C363.946 125.082 376.394 122.778 378.394 130.154C380.394 137.53 377.161 141.227 375.322 141.691C373.482 142.156 361.642 141.995 361.945 143.531C362.249 145.067 370.25 147.531 374.697 146.138C374.697 146.138 369.786 158.283 363.321 157.676C356.855 157.068 354.873 153.068 350.873 152.764C346.872 152.461 343.961 153.532 345.961 154.604C347.962 155.675 354.73 154.961 357.945 157.693C361.177 160.444 363.785 162.123 357.784 163.355C351.783 164.587 341.032 163.819 338.871 159.211C336.728 154.586 336.728 154.586 336.728 154.586Z" fill="#A8D29F"/>
<path d="M372.697 132.458C372.697 132.458 340.407 142.906 336.728 154.586C336.728 154.586 336.889 159.819 333.656 165.802V168.105C333.656 168.105 337.032 160.265 338.889 159.194C338.871 159.211 331.656 149.067 372.697 132.458Z" fill="#82B378"/>
<path d="M334.961 165.284C334.8 165.694 334.533 166.248 334.157 166.998C334.032 167.266 333.907 167.534 333.782 167.82C332.675 170.588 332.461 174.41 332.497 177.428H330.639C330.425 170.713 333.64 165.819 333.64 165.819C333.693 165.748 335.89 162.998 334.961 165.284Z" fill="#82B378"/>
<path d="M279.331 177.535H235.486C234.843 175.964 234.272 174.285 233.772 172.535C232.522 168.159 231.718 163.337 231.2 158.622C231.2 158.569 231.182 158.497 231.182 158.444C230.289 150.264 230.289 142.388 230.414 137.655C230.486 134.923 230.593 133.226 230.593 133.155C230.682 133.119 230.789 133.083 230.879 133.048C233.2 132.065 235.433 131.226 237.576 130.512C237.594 130.512 237.594 130.512 237.594 130.512C239.398 129.904 241.112 129.369 242.791 128.922C245.72 128.118 248.434 127.547 250.952 127.136C253.917 126.672 256.614 126.44 259.007 126.386C259.114 126.386 259.221 126.386 259.329 126.386C259.971 126.368 260.579 126.386 261.168 126.386C267.169 126.511 271.169 127.708 273.187 128.511C273.473 128.619 273.705 128.726 273.92 128.815C273.937 128.833 273.973 128.833 273.991 128.851C274.223 128.958 274.402 129.047 274.527 129.101C274.545 129.101 274.562 129.119 274.58 129.119C274.634 129.154 274.705 129.19 274.759 129.208L277.92 162.444L279.331 177.535Z" fill="#2B478B"/>
<path d="M323.029 170.356C318.636 172.392 292.507 174.107 289.989 173.392C288.703 173.017 283.31 168.267 277.898 162.444C272.773 156.926 267.594 150.425 265.861 145.746C262.272 136.138 265.361 127.601 265.361 127.601C265.361 127.601 272.023 127.565 274.755 129.208C277.47 130.851 293.007 159.48 295.097 160.23C297.169 160.998 321.797 162.391 324.618 163.73C324.583 163.712 327.404 168.302 323.029 170.356Z" fill="#2B478B"/>
<path d="M259.308 127.511V129.137C259.308 129.137 259.754 134.191 253.521 134.941C247.289 135.691 242.574 132.976 242.734 129.083C243.288 126.065 243.895 123.975 243.949 121.475C243.967 120.546 243.895 119.564 243.717 118.439L255.79 118.171L259.344 118.742L259.308 127.511Z" fill="#EA9E6A"/>
<path d="M259.344 118.76L259.308 127.511C258.022 128.119 256.576 128.476 254.951 128.476C249.396 128.476 243.878 119.546 243.699 118.439L259.344 118.76Z" fill="#D88D59"/>
<path d="M260.04 123.011C260.04 123.011 244.574 126.154 242.77 116.492C240.966 106.831 237.734 100.741 247.538 98.3116C257.325 95.9006 259.95 99.2225 261.344 102.294C262.719 105.384 264.022 121.94 260.04 123.011Z" fill="#EA9E6A"/>
<path d="M264.327 95.1325C264.327 95.1325 260.005 94.8111 254.915 92.5965C250.79 90.8106 245.575 92.793 243.896 93.6859C243.949 93.418 244.057 93.043 244.307 92.668C244.307 92.668 243.557 93.2037 243.432 93.9538C243.36 94.0074 243.324 94.0431 243.342 94.061C243.342 94.061 242.485 93.9002 241.931 94.1503C241.931 94.1503 242.324 94.0967 242.449 94.3467C242.467 94.3646 242.485 94.4003 242.503 94.4182C236.074 97.5435 235.484 107.723 237.556 110.063C240.056 112.885 243.057 119.26 243.057 119.26C243.057 119.26 244.146 117.742 243.682 115.26C243.217 112.76 245.378 112.76 248.093 111.635C250.807 110.492 248.539 107.33 250.915 105.402C253.29 103.473 262.023 104.598 261.898 103.116C265.184 101.937 264.327 95.454 264.327 95.1325Z" fill="#8E342E"/>
<path d="M235.468 177.535C234.825 175.964 234.254 174.285 233.754 172.535C232.504 168.159 231.7 163.337 231.182 158.622C231.182 158.569 231.164 158.497 231.164 158.444C231.2 158.462 231.253 158.551 231.289 158.497C233.004 156.426 237.665 154.157 243.308 162.408C244.434 164.052 249.381 175.589 250.166 177.517H235.468V177.535Z" fill="#233862"/>
<path d="M240.058 177.535C239.933 176.785 240.075 175.857 240.647 174.678C240.647 174.678 241.379 174.214 242.326 173.66C243.754 172.856 245.719 171.874 246.594 172.035C246.755 172.07 246.969 172.106 247.219 172.178C249.327 172.678 254.238 174.196 254.97 175.071C255.577 175.803 256.417 176.732 256.988 177.535H240.058Z" fill="#EA9E6A"/>
<path d="M243.309 177.535H201.983C201.875 177 201.875 176.518 202.018 176.142C203.251 173.035 205.662 167.909 208.43 162.409C210.466 158.372 212.698 154.122 214.806 150.318C217.735 145.049 220.413 140.638 221.985 138.817C223.235 137.388 224.789 136.191 226.432 135.209C227.825 134.37 229.254 133.691 230.575 133.137C230.665 133.102 230.772 133.066 230.861 133.03C233.736 131.869 236.022 131.351 236.022 131.351C236.022 131.351 236.058 132.655 236.058 134.655C236.058 140.477 235.844 152.211 233.986 155.086C233.469 155.89 232.504 157.087 231.29 158.497C231.254 158.533 231.218 158.569 231.183 158.622C230.522 159.39 229.807 160.212 229.039 161.051C224.735 165.873 219.27 171.553 218.592 172.249C218.538 172.303 218.52 172.321 218.52 172.321H218.592L230.182 172.481L233.736 172.535L241.112 172.642C241.612 172.856 242.023 173.214 242.327 173.66C243.041 174.714 243.273 176.232 243.309 177.535Z" fill="#2B478B"/>
<path d="M323.029 170.356C318.636 172.392 292.507 174.106 289.989 173.392C288.703 173.017 283.31 168.266 277.898 162.444C278.166 162.48 280.649 158.354 291.954 168.231C291.954 168.231 294.918 169.552 302.973 168.802C311.01 168.052 321.35 167.784 323.029 170.356Z" fill="#233862"/>
<path d="M297.347 177.446H267.469C267.469 176.124 268.54 175.071 269.844 175.071H297.33V177.446H297.347Z" fill="#B24940"/>
<path d="M297.255 144.924H343.439L332.367 177.446H285.879L297.255 144.924Z" fill="#B24940"/>
<path d="M344.137 144.924L333.046 177.446H286.559L297.935 144.924H344.137Z" fill="#C65447"/>
<path d="M319.224 160.89C318.938 162.141 317.688 163.141 316.456 163.141C315.206 163.141 314.438 162.141 314.724 160.89C315.009 159.64 316.26 158.64 317.492 158.64C318.742 158.64 319.51 159.64 319.224 160.89Z" fill="#F9DDBF"/>
<path d="M344.14 144.924L333.049 177.446H311.422L337.336 144.924H344.14Z" fill="#B24940"/>
<path d="M247.273 119.975L246.666 120.1C243.916 120.654 241.237 118.868 240.665 116.117L240.023 112.903C239.469 110.152 241.255 107.473 244.005 106.902L244.612 106.777C247.363 106.223 250.042 108.009 250.613 110.76L251.256 113.974C251.792 116.725 250.006 119.421 247.273 119.975Z" fill="#3661FC"/>
<path d="M242.465 108.384C242.055 107.634 241.447 101.651 243.091 96.8827C243.894 94.5788 245.18 93.2573 246.787 92.3821C247.377 92.0607 248.02 91.8821 248.698 91.8821L250.324 91.9178C244.984 94.1859 243.733 106.277 244.162 107.58C244.144 107.545 244.126 107.509 244.126 107.491L242.465 108.384Z" fill="#3661FC"/>
<path d="M258.079 120.975C249.096 120.975 244.649 113.885 244.613 113.813L245.417 113.331L245.024 113.581L245.417 113.331C245.453 113.402 249.65 120.046 258.079 120.046C258.133 120.046 258.186 120.046 258.24 120.046L258.258 120.993C258.186 120.975 258.133 120.975 258.079 120.975Z" fill="#122544"/>
<path d="M245.828 116.814L245.524 116.867C244.167 117.135 242.809 116.26 242.542 114.885L242.22 113.278C241.952 111.92 242.827 110.563 244.202 110.295L244.506 110.242C245.863 109.974 247.221 110.849 247.489 112.224L247.81 113.831C248.078 115.189 247.185 116.546 245.828 116.814Z" fill="white"/>
<path d="M259.188 121.296H258.348C257.92 121.296 257.562 120.939 257.562 120.51C257.562 120.082 257.92 119.725 258.348 119.725H259.188C259.616 119.725 259.974 120.082 259.974 120.51C259.974 120.939 259.616 121.296 259.188 121.296Z" fill="#3661FC"/>
<path d="M79.5362 107.241C79.5362 107.241 71.9996 111.099 77.5002 119.368C77.5002 119.368 71.0352 120.118 69.3921 118.26C69.3921 118.26 69.6421 119.082 69.9279 119.475C69.9279 119.475 63.6593 118.653 61.409 116.278C59.1587 113.903 66.1774 82.2916 82.8759 88.7567C82.8759 88.7567 97.7348 90.114 93.52 106.848C89.3052 123.582 94.8416 124.511 94.8416 124.511C94.8416 124.511 93.1807 125.011 92.4306 124.886C92.4306 124.886 91.4126 124.297 91.3055 123.654C91.3055 123.654 91.3591 124.636 91.5912 124.975C91.5912 124.975 85.5191 124.547 82.9116 121.779C80.2863 119.028 78.0896 110.599 79.5362 107.241Z" fill="#8E342E"/>
<path d="M90.2859 115.51L89.6787 115.599C86.9998 115.974 84.4816 114.081 84.1244 111.384L83.6958 108.223C83.3208 105.544 85.2139 103.026 87.9106 102.669L88.5178 102.58C91.1967 102.205 93.7149 104.098 94.0721 106.794L94.5007 109.955C94.8579 112.634 92.9648 115.135 90.2859 115.51Z" fill="url(#paint0_linear_1448_4791)"/>
<path d="M91.9987 140.781C89.7484 142.513 88.3197 148.782 84.7121 149.818C71.1212 153.693 63.8346 137.566 61.4414 129.69C63.2631 128.529 65.0133 128.19 66.0312 128.029C67.0135 127.869 68.0672 127.726 68.9245 127.636C70.4068 126.368 72.4606 121.421 72.5856 113.885L73.2464 114.028L84.2299 116.439C84.2299 116.439 83.9084 119.903 83.837 123.172C83.7834 125.725 83.6941 126.333 83.8906 126.636C84.7478 126.779 85.7479 128.958 85.7479 128.958C85.7479 128.958 85.7479 128.958 85.7479 128.976C85.9087 129.208 89.3198 134.209 91.9987 140.781Z" fill="#FFB27D"/>
<path d="M84.2335 116.421C84.2335 116.421 83.912 119.885 83.8406 123.153C77.6612 122.85 74.518 117.153 73.25 114.01L84.2335 116.421Z" fill="#ED985F"/>
<path d="M140.114 173.41C140.114 173.41 133.649 173.642 126.63 173.677C125.809 173.677 124.951 173.677 124.13 173.677C118.415 173.66 112.807 173.445 110.414 172.838C108.074 172.231 99.0911 166.159 91.9117 158.783C91.3581 160.104 90.9294 161.122 90.9294 161.212C90.7151 162.873 90.3579 164.534 89.9472 166.123C88.322 172.195 85.6074 177.303 85.5002 177.482H81.6604L51.6211 177.446C51.6211 177.446 57.3004 168.713 55.7645 146.317C55.7287 145.746 60.9972 127.69 60.9972 127.69C60.9972 127.69 65.087 126.975 69.8197 126.6C70.2662 127.011 71.177 138.888 77.1063 139.584C78.0707 139.691 84.25 149.121 84.25 149.121L86.1253 139.477L83.9107 126.69C86.7504 127.529 88.3041 127.815 90.6615 128.761C92.2689 129.404 93.5905 130.583 94.4299 132.101C98.5732 139.655 111.986 164.033 113.361 164.605C114.647 165.141 119.486 166.105 124.594 167.034C131.434 168.284 138.792 169.463 138.792 169.463L140.114 173.41Z" fill="#D2E3FC"/>
<path d="M86.0505 119.725C86.0505 119.725 71.4416 119.439 71.763 110.348C72.0845 101.258 70.4057 95.0967 79.7461 94.8823C89.0866 94.6859 90.7832 98.222 91.4083 101.276C92.0512 104.348 89.8724 119.564 86.0505 119.725Z" fill="#FFB27D"/>
<path d="M126.629 173.678C125.807 173.678 124.95 173.678 124.128 173.678C118.413 173.66 112.806 173.445 110.412 172.838C108.073 172.231 99.0896 166.159 91.9102 158.783C91.9102 158.783 93.4282 152.979 94.0711 152.014C94.7319 151.032 97.3037 160.48 103.322 164.319C109.341 168.159 118.771 170.856 123.343 169.766C126.45 169.016 126.754 171.785 126.629 173.678Z" fill="#B7D3F3"/>
<path d="M83.1953 114.67C83.1953 114.67 83.2846 115.76 85.6778 115.938C85.6778 115.938 87.6959 116.081 87.7673 114.92C87.7673 114.902 85.9456 113.795 83.1953 114.67Z" fill="white"/>
<path d="M83.9834 118.349C75.6788 115.724 73.6429 107.866 73.625 107.794L74.518 107.58L74.0715 107.687L74.518 107.58C74.5358 107.652 76.4646 115.027 84.2691 117.492C84.3227 117.51 84.3763 117.528 84.4299 117.546L84.1441 118.385C84.0906 118.385 84.037 118.367 83.9834 118.349Z" fill="#122544"/>
<path d="M84.9292 118.957L84.1434 118.707C83.7505 118.582 83.5183 118.153 83.6433 117.76C83.7683 117.367 84.197 117.135 84.5899 117.26L85.3757 117.51C85.7686 117.635 86.0008 118.064 85.8757 118.457C85.7507 118.867 85.3221 119.082 84.9292 118.957Z" fill="url(#paint1_linear_1448_4791)"/>
<path d="M86.8938 93.6677C86.8938 93.6677 83.1612 104.741 77.5355 106.634C71.9277 108.509 70.0703 106.294 70.0703 106.294C70.0703 106.294 74.2137 102.49 74.678 96.3466C74.678 96.3466 83.7505 89.1493 86.8938 93.6677Z" fill="#8E342E"/>
<path d="M79.9102 96.936C79.9102 96.936 87.5361 96.5074 89.8042 98.6862C91.4473 100.258 91.4116 101.062 91.5366 103.151C91.5366 103.151 94.8763 98.0076 91.4473 94.4179C87.804 90.596 79.9102 96.936 79.9102 96.936Z" fill="#8E342E"/>
<path d="M86.5714 94.8466C86.5714 94.8466 84.6604 105.455 77.6953 109.295C77.6953 109.295 84.4461 102.383 84.5711 95.4717C84.6783 88.5601 86.5714 94.8466 86.5714 94.8466Z" fill="#8E342E"/>
<path d="M61.4097 116.26C63.66 118.635 69.9286 119.457 69.9286 119.457C69.6429 119.064 69.3928 118.242 69.3928 118.242C72.6075 120.85 80.537 118.957 80.537 118.957C74.2148 117.564 76.2687 108.455 78.4118 108.062C79.6619 101.187 82.1444 92.6319 83.3052 88.7922C83.0195 88.7386 82.8587 88.7386 82.8587 88.7386C66.1603 82.2735 59.1595 113.885 61.4097 116.26Z" fill="#8E342E"/>
<path d="M75.1218 114.563L74.5146 114.653C71.8357 115.028 69.3176 113.135 68.9604 110.438L68.5317 107.277C68.1567 104.598 70.0498 102.08 72.7465 101.723L73.3538 101.633C76.0327 101.258 78.5508 103.151 78.908 105.848L79.3366 109.009C79.6938 111.688 77.8007 114.206 75.1218 114.563Z" fill="url(#paint2_linear_1448_4791)"/>
<path d="M71.1743 103.062C70.8171 102.383 72.0672 97.1686 73.9246 93.1145C74.8176 91.15 77.0678 88.5425 78.6752 87.8639C79.2645 87.6138 80.0325 87.721 80.6576 87.8639C81.1219 87.971 82.4078 88.5604 82.4078 88.5604C77.1214 90.2034 72.5137 101.294 72.853 102.437C72.8352 102.401 72.8352 102.383 72.8173 102.348L71.1743 103.062Z" fill="url(#paint3_linear_1448_4791)"/>
<path d="M73.9097 111.438L73.6061 111.474C72.2666 111.652 71.0165 110.724 70.8379 109.384L70.6235 107.812C70.445 106.473 71.3736 105.223 72.7131 105.044L73.0167 105.009C74.3561 104.83 75.6063 105.759 75.7849 107.098L75.9992 108.67C76.1778 110.009 75.2491 111.241 73.9097 111.438Z" fill="white"/>
<path d="M109.362 168.141C109.362 168.141 115.63 167.784 116.237 168.106C117.22 168.641 120.595 170.802 121.113 171.427C121.649 172.053 123.024 174.589 123.024 174.589C123.024 174.589 122.435 174.749 122.149 174.517C121.881 174.267 119.827 172.106 119.827 172.106L121.935 175.303C121.935 175.303 121.202 175.267 120.917 174.946C120.631 174.624 118.666 172.642 118.666 172.642L118.006 172.517C118.006 172.517 118.684 173.07 119.059 173.553C119.434 174.053 119.666 174.571 119.666 174.571C119.666 174.571 119.059 174.464 118.881 174.374C118.702 174.285 116.934 172.749 116.934 172.749L117.863 174.017C117.863 174.017 117.238 173.981 117.023 173.838C116.809 173.696 115.452 172.428 115.202 172.445C114.952 172.445 113.201 172.374 112.451 171.981C111.701 171.588 109.344 170.677 109.344 170.677L109.362 168.141Z" fill="#FFB27D"/>
<path d="M70.6747 124.779C70.6747 124.779 66.4778 125.993 65.5312 126.958C65.5312 126.958 69.9068 138.155 76.229 143.388L77.9256 142.192V144.906L84.2478 149.05C84.2299 149.05 70.3354 128.172 70.6747 124.779Z" fill="#B7D3F3"/>
<path d="M89.9302 166.087C88.305 172.159 85.5904 177.267 85.4833 177.446H87.6264H85.4833H65.5344C65.5344 177.446 67.8561 177.446 67.8383 177.428C67.7847 177.231 71.2137 167.927 65.5344 164.123C59.8373 160.301 57.7656 150.925 57.7656 150.925L75.8928 146.496C75.8928 146.496 83.358 157.39 85.4833 159.479C87.1085 161.069 90.9125 161.194 90.9125 161.194L89.9302 166.087Z" fill="#B7D3F3"/>
<path d="M83.8923 126.636C83.8923 126.636 85.8211 141.87 84.2316 149.05C84.2316 149.05 86.8212 144.299 87.1784 143.424L86.7498 140.816L88.4107 141.406C88.4107 141.406 86.9463 129.261 85.6068 127.136C84.2674 125.011 83.7852 124.797 83.7852 124.797L83.8923 126.636Z" fill="#B7D3F3"/>
<path d="M140.114 173.41C140.114 173.41 132.024 173.713 124.13 173.677C122.166 170.641 124.577 166.998 124.577 166.998C131.417 168.248 138.775 169.427 138.775 169.427L140.114 173.41Z" fill="#FFB27D"/>
<path d="M140.879 177.446H111C111 176.124 112.072 175.071 113.375 175.071H140.861V177.446H140.879Z" fill="#ED7D2B"/>
<path d="M186.975 144.924L175.902 177.446H129.414L140.79 144.924H186.975Z" fill="#ED7D2B"/>
<path d="M186.976 144.924L176.01 177.16L175.903 177.446H130.094L141.47 144.924H186.976Z" fill="#F99746"/>
<path d="M162.759 160.89C162.474 162.14 161.223 163.14 159.991 163.14C158.741 163.14 157.973 162.14 158.259 160.89C158.545 159.64 159.795 158.64 161.027 158.64C162.277 158.64 163.045 159.64 162.759 160.89Z" fill="#FFC397"/>
<path d="M186.975 144.924L176.009 177.16H154.953L180.617 144.924H186.975Z" fill="#ED7D2B"/>
<path d="M109.358 170.677C109.358 170.677 93.9815 172.016 85.4805 171.641V163.283C91.0526 164.819 109.358 168.141 109.358 168.141V170.677Z" fill="#FFB27D"/>
<path d="M65.5312 126.976C65.5312 126.976 56.7444 127.172 54.012 130.119C51.2973 133.066 56.7087 149.675 56.7087 149.675C56.7087 149.675 73.1036 169.749 81.301 171.16C81.301 171.16 84.8907 171.642 86.5516 171.677C86.5516 171.677 84.9086 166.909 87.9625 163.909C87.9625 163.909 84.4442 162.926 84.3013 162.498C84.1585 162.051 65.5312 126.976 65.5312 126.976Z" fill="#D2E3FC"/>
<path d="M433.058 89.131C433.058 89.131 424.147 85.8091 418.592 92.3278C415.396 96.0604 395 134.958 395.232 138.369C395.482 141.78 397.429 143.477 397.429 143.477C397.429 143.477 396.572 140.494 397.215 138.941C397.215 138.941 396.804 144.191 400.037 146.424C401.715 147.584 443.72 145.316 447.382 140.226C455.311 129.172 437.988 123.439 438.416 111.491C438.666 104.544 445.471 89.8275 433.058 89.131Z" fill="#2C3A64"/>
<path d="M441.542 113.902L440.952 114.027C438.291 114.563 435.684 112.83 435.148 110.169L434.523 107.044C433.987 104.383 435.72 101.775 438.381 101.24L438.97 101.115C441.631 100.579 444.239 102.311 444.774 104.972L445.399 108.098C445.935 110.759 444.203 113.366 441.542 113.902Z" fill="url(#paint4_linear_1448_4791)"/>
<path d="M479.654 177.392H451.794C447.061 169.891 442.918 159.747 441.935 151.871C441.471 148.12 441.739 144.888 442.989 142.673C446.882 135.798 440.703 127.725 440.703 127.725C440.703 127.725 449.204 130.136 451.187 137.137C453.205 144.281 458.598 168.034 458.598 168.034L479.297 172.284C480.262 174.713 479.654 177.392 479.654 177.392Z" fill="#F99746"/>
<path d="M479.656 177.392H451.796C447.063 169.891 442.92 159.747 441.938 151.871L446.063 150.603C446.063 150.603 451.296 174.481 454.332 174.838C457.386 175.213 479.656 177.392 479.656 177.392Z" fill="#ED7D2B"/>
<path d="M444.827 139.03C442.684 140.905 439.933 142.548 436.379 143.816C423.056 148.531 416.502 137.548 413.645 129.832C415.395 128.546 417.127 128.118 418.127 127.886C419.109 127.653 420.127 127.457 420.985 127.314C422.396 125.957 424.128 120.885 423.789 113.348L424.449 113.455L435.558 115.188C435.558 115.188 435.451 118.67 435.576 121.938C435.683 124.492 435.915 126.921 436.469 127.457C437.326 127.546 437.844 127.6 437.844 127.6C437.844 127.6 437.844 127.6 437.844 127.618C438.022 127.832 441.737 132.636 444.827 139.03Z" fill="#FFB27D"/>
<path d="M435.562 115.188C435.562 115.188 435.454 118.67 435.579 121.938C429.4 122.01 425.918 116.527 424.453 113.455L435.562 115.188Z" fill="#ED985F"/>
<path d="M450.114 150.603C450.078 150.835 447.114 160.497 447.078 160.747C446.042 168.837 444.185 177.463 444.185 177.463H440.095L413.163 177.41C413.163 177.41 416.413 167.605 407.841 152.567C407.555 152.067 407.269 151.585 406.966 151.067C405.751 149.067 413.449 127.636 413.449 127.636C413.449 127.636 416.824 127.046 421.557 126.654C422.003 127.064 425.29 139.084 431.237 139.441C439.005 139.923 436.059 126.529 436.059 126.529C439.22 127.171 440.363 127.404 444.417 129.332C444.417 129.332 450.275 149.281 450.114 150.603Z" fill="#F99746"/>
<path d="M437.595 118.385C437.595 118.385 422.986 118.992 422.754 109.902C422.504 100.811 420.468 94.7568 429.773 93.971C439.077 93.2031 440.988 96.6142 441.81 99.6324C442.631 102.651 441.381 117.974 437.595 118.385Z" fill="#FFB27D"/>
<path d="M434.414 113.491C434.414 113.491 434.575 114.581 436.968 114.598C436.968 114.598 438.986 114.616 439.004 113.438C439.004 113.455 437.111 112.473 434.414 113.491Z" fill="white"/>
<path d="M435.433 117.117C426.985 115.009 424.467 107.294 424.449 107.205L425.324 106.937L424.896 107.08L425.324 106.937C425.342 107.008 427.717 114.241 435.665 116.224C435.718 116.241 435.772 116.241 435.826 116.259L435.611 117.152C435.54 117.152 435.486 117.134 435.433 117.117Z" fill="#122544"/>
<path d="M436.398 117.67L435.594 117.474C435.183 117.367 434.933 116.956 435.04 116.545C435.148 116.134 435.558 115.884 435.969 115.991L436.773 116.188C437.184 116.295 437.434 116.706 437.326 117.117C437.219 117.527 436.808 117.777 436.398 117.67Z" fill="url(#paint5_linear_1448_4791)"/>
<path d="M429.308 88.3096C429.308 88.3096 438.702 86.8452 442.595 94.6675C445.56 100.633 443.095 104.347 441.934 105.49C441.934 105.49 440.399 96.9357 437.523 96.2034C437.523 96.2034 435.666 95.6319 434.416 97.1143C433.148 98.5787 431.326 105.133 429.219 106.133C429.219 106.133 422.7 107.741 422.378 105.472C422.057 103.204 422.236 96.1141 423.879 94.989C425.54 93.8281 429.308 88.3096 429.308 88.3096Z" fill="#2C3A64"/>
<path d="M426.346 113.902L425.757 114.027C423.096 114.563 420.489 112.831 419.953 110.17L419.328 107.044C418.792 104.383 420.524 101.776 423.185 101.24L423.775 101.115C426.436 100.579 429.043 102.311 429.579 104.972L430.204 108.098C430.74 110.759 429.007 113.366 426.346 113.902Z" fill="url(#paint6_linear_1448_4791)"/>
<path d="M421.702 102.669C421.309 102.026 420.719 96.793 422.309 92.6497C423.077 90.6494 424.327 89.4886 425.898 88.7206C426.47 88.4349 427.095 88.292 427.738 88.292L429.31 88.3098C424.13 90.2744 422.934 100.829 423.327 101.954C423.309 101.919 423.291 101.901 423.291 101.883L421.702 102.669Z" fill="url(#paint7_linear_1448_4791)"/>
<path d="M424.954 110.848L424.65 110.902C423.329 111.17 422.025 110.313 421.757 108.973L421.436 107.419C421.168 106.098 422.025 104.794 423.364 104.526L423.668 104.473C424.99 104.205 426.293 105.062 426.561 106.401L426.883 107.955C427.133 109.277 426.276 110.58 424.954 110.848Z" fill="white"/>
<path d="M413.181 177.392C413.181 177.392 416.432 167.587 407.859 152.549L411.056 148.567C411.056 148.567 416.7 164.569 423.772 169.248C430.826 173.909 439.113 172.927 440.113 177.445L413.181 177.392Z" fill="#ED7D2B"/>
<path d="M413.45 127.618C413.45 127.618 407.645 128.118 403.752 134.994C399.859 141.87 392.465 167.569 392.465 177.374H423.576C423.576 177.374 424.183 174.695 423.219 172.266L403.966 168.569C403.966 168.569 415.557 151.371 415.682 143.941C415.789 136.53 413.45 127.618 413.45 127.618Z" fill="#F99746"/>
<path d="M423.755 174.231C423.755 174.231 429.809 173.642 430.827 173.909C431.827 174.177 434.702 175.374 435.345 175.785C435.988 176.195 437.22 177.392 437.22 177.392C437.22 177.392 436.453 177.535 435.988 177.428C435.524 177.321 434.167 177.231 433.792 177.196C433.434 177.16 432.113 177.428 432.113 177.428H422.719L423.755 174.231Z" fill="#FFB27D"/>
<path d="M478.652 177.445H448.773C448.773 176.124 449.845 175.07 451.149 175.07H478.652V177.445Z" fill="#233862"/>
<path d="M524.748 144.924L513.675 177.445H467.188L478.564 144.924H524.748Z" fill="#233862"/>
<path d="M524.749 144.924L513.766 177.16L513.676 177.445H467.867L479.244 144.924H524.749Z" fill="#2B478B"/>
<path d="M500.529 160.89C500.243 162.14 498.993 163.14 497.761 163.14C496.511 163.14 495.743 162.14 496.028 160.89C496.314 159.64 497.564 158.639 498.797 158.639C500.029 158.639 500.815 159.64 500.529 160.89Z" fill="#F99746"/>
<path d="M524.744 144.924L513.761 177.16H492.723L518.386 144.924H524.744Z" fill="#233862"/>
<path d="M523.281 179.821H42.7028C42.3194 179.821 42 179.363 42 178.813V177.829C42 177.279 42.3194 176.821 42.7028 176.821H523.297C523.681 176.821 524 177.279 524 177.829V178.813C523.984 179.363 523.665 179.821 523.281 179.821Z" fill="url(#paint8_linear_1448_4791)"/>
<defs>
<linearGradient id="paint0_linear_1448_4791" x1="83.6457" y1="109.082" x2="94.5501" y2="109.082" gradientUnits="userSpaceOnUse">
<stop stop-color="#FE651B"/>
<stop offset="1" stop-color="#FFAA52"/>
</linearGradient>
<linearGradient id="paint1_linear_1448_4791" x1="83.6088" y1="118.108" x2="85.911" y2="118.108" gradientUnits="userSpaceOnUse">
<stop stop-color="#FE651B"/>
<stop offset="1" stop-color="#FFAA52"/>
</linearGradient>
<linearGradient id="paint2_linear_1448_4791" x1="68.4817" y1="108.136" x2="79.3861" y2="108.136" gradientUnits="userSpaceOnUse">
<stop stop-color="#FE651B"/>
<stop offset="1" stop-color="#FFAA52"/>
</linearGradient>
<linearGradient id="paint3_linear_1448_4791" x1="71.1105" y1="95.3796" x2="82.4141" y2="95.3796" gradientUnits="userSpaceOnUse">
<stop stop-color="#FE651B"/>
<stop offset="1" stop-color="#FFAA52"/>
</linearGradient>
<linearGradient id="paint4_linear_1448_4791" x1="434.423" y1="107.564" x2="445.503" y2="107.564" gradientUnits="userSpaceOnUse">
<stop stop-color="#FE651B"/>
<stop offset="1" stop-color="#FFAA52"/>
</linearGradient>
<linearGradient id="paint5_linear_1448_4791" x1="435.015" y1="116.83" x2="437.353" y2="116.83" gradientUnits="userSpaceOnUse">
<stop stop-color="#FE651B"/>
<stop offset="1" stop-color="#FFAA52"/>
</linearGradient>
<linearGradient id="paint6_linear_1448_4791" x1="419.228" y1="107.564" x2="430.308" y2="107.564" gradientUnits="userSpaceOnUse">
<stop stop-color="#FE651B"/>
<stop offset="1" stop-color="#FFAA52"/>
</linearGradient>
<linearGradient id="paint7_linear_1448_4791" x1="421.26" y1="95.4725" x2="429.314" y2="95.4725" gradientUnits="userSpaceOnUse">
<stop stop-color="#FE651B"/>
<stop offset="1" stop-color="#FFAA52"/>
</linearGradient>
<linearGradient id="paint8_linear_1448_4791" x1="41.881" y1="178.319" x2="524.271" y2="178.319" gradientUnits="userSpaceOnUse">
<stop stop-color="#FE651B"/>
<stop offset="1" stop-color="#FFAA52"/>
</linearGradient>
</defs>
</svg>
